<?xml version="1.0" encoding="utf-8"?>
<!-- Generator: Adobe Illustrator 23.0.0, SVG Export Plug-In . SVG Version: 6.00 Build 0)  -->
<svg version="1.1" id="Слой_1" xmlns="http://www.w3.org/2000/svg" xmlns:xlink="http://www.w3.org/1999/xlink" x="0px" y="0px"
	 viewBox="0 0 500 500" style="enable-background:new 0 0 500 500;" xml:space="preserve">
<style type="text/css">
	.st0{fill:#1D1D1B;}
</style>
<path class="st0" d="M194.539,359.25h-26.967c-8.396,0-15.201-6.806-15.201-15.201V155.951c0-8.396,6.806-15.201,15.201-15.201
	h26.967c8.396,0,15.201,6.806,15.201,15.201v188.097C209.74,352.444,202.934,359.25,194.539,359.25z"/>
<path class="st0" d="M332.429,359.25h-26.967c-8.396,0-15.201-6.806-15.201-15.201V155.951c0-8.396,6.806-15.201,15.201-15.201
	h26.967c8.396,0,15.201,6.806,15.201,15.201v188.097C347.63,352.444,340.824,359.25,332.429,359.25z"/>
</svg>
