<?xml version="1.0" encoding="utf-8"?>
<!-- Generator: Adobe Illustrator 23.0.0, SVG Export Plug-In . SVG Version: 6.00 Build 0)  -->
<svg version="1.1" id="Слой_1" xmlns="http://www.w3.org/2000/svg" xmlns:xlink="http://www.w3.org/1999/xlink" x="0px" y="0px"
	 viewBox="0 0 500 500" style="enable-background:new 0 0 500 500;" xml:space="preserve">
<style type="text/css">
	.st0{fill:#1D1D1B;}
</style>
<path class="st0" d="M329.8,359.8h-31.7c-9.9,0-17.9-6.8-17.9-15.3V155.5c0-8.4,8-15.3,17.9-15.3h31.7c9.9,0,17.9,6.8,17.9,15.3
	v189.1C347.6,353,339.6,359.8,329.8,359.8z"/>
<path class="st0" d="M201.9,358.7h-31.7c-9.9,0-17.9-6.8-17.9-15.3V154.4c0-8.4,8-15.3,17.9-15.3h31.7c9.9,0,17.9,6.8,17.9,15.3
	v189.1C219.7,351.9,211.7,358.7,201.9,358.7z"/>
</svg>
